<?xml version="1.0" standalone="no"?>
<!DOCTYPE svg PUBLIC "-//W3C//DTD SVG 1.1//EN" "http://www.w3.org/Graphics/SVG/1.1/DTD/svg11.dtd" >
<svg xmlns="http://www.w3.org/2000/svg">
<metadata>Generated by IcoMoon</metadata>
<defs>
<font id="iconfont" horiz-adv-x="1024">
<font-face units-per-em="1024" ascent="896" descent="-128" />
<missing-glyph horiz-adv-x="1024" />
<glyph unicode="&#x20;" horiz-adv-x="0" d="" />
<glyph unicode="&#xe600;" glyph-name="twitter" d="M961 745q-16-33-65-73-19-16-20-45-18-345-308-480-246-114-496 25-8 4-8 10 105-7 189 32 47 21 73 44-26 6-29 6-91 21-132 106-6 10-3.5 15t15.5 4q23-2 52 2-132 53-138 186 6-2 23.5-8t30-8.5 25.5-2.5q-61 52-73 115-14 72 21 132 60-66 112-102 111-75 251-91 13-2 17.5 1.5t3.5 17.5q-13 120 88 181 107 65 203-6 41-30 85-10 5 2 65 28-23-62-76-98 21 0 54 9.5t38 10.5z" />
<glyph unicode="&#xe601;" glyph-name="facebook" d="M721 918v-145q-12 1-30.5 1.5t-54.5-6.5-48-25q-7-10-8-31.5t0-55.5 1-48h141q-23-107-29-140h-113v-450h-196v448h-84v142h83v15q2 49 4 74.5t7.5 63 17 62.5 28.5 43q10 10 19 17.5t21.5 13 20.5 9 25.5 6 26.5 4 34 2 37 0.5h97z" />
<glyph unicode="&#xe602;" glyph-name="clock" d="M512 852q159 0 271.5-112.5t112.5-271.5-112.5-271.5-271.5-112.5-271.5 112.5-112.5 271.5 112.5 271.5 271.5 112.5zM512 980q-139 0-257-68.5t-186.5-186.5-68.5-257 68.5-257 186.5-186.5 257-68.5 257 68.5 186.5 186.5 68.5 257-68.5 257-186.5 186.5-257 68.5v0zM686 386l-110 109v229h-129v-256q0-28 23-48l125-125z" />
<glyph unicode="&#xe603;" glyph-name="segmentfault" d="M123 229q71-64 144-64 32 0 56 15t24 46q0 14-6 24.5t-19.5 19-25.5 14-35 14-37 14.5q-65 28-99.5 64t-34.5 100q0 87 61 130t158 43q113 0 188-48v-14l-48-93q-55 41-127 41-33 0-52-13.5t-19-38.5q0-11 5-20t11-15 19-12.5 22.5-10 29-10.5 30.5-11q74-28 109-64t35-103q0-90-62.5-135t-165.5-45q-119 0-211 70v14zM656 58q0 113 3 450-32-1-75-1l1 121q42 0 73-1 0 3-1 54.5t-1 53.5q0 96 49.5 140.5t132.5 44.5q72 0 135-26v-18l-35-96q-29 17-60 17-27 0-41-17.5t-14-62.5q0-13 1-51.5l1-38.5q35 1 113 1l-1-121q-78 0-114 1 3-112 3-450h-170z" />
<glyph unicode="&#xe604;" glyph-name="acfun" horiz-adv-x="1092" d="M521 980l-521-859 261-165 53 185 414 31 107-205 257 154zM415 338l98 217 111-217h-209z" />
<glyph unicode="&#xe605;" glyph-name="category" d="M970 49h-941q-13 0-21 8v0q-8 9-8 22t8 21v0q8 9 21 9h941q20 0 27-18 2-6 2-12.5t-2-11.5q-7-18-27-18zM704 277h-675q-12 0-21 8v0q-8 9-8 22t8 21v0q8 9 21 9h675q20 0 27-18 2-6 2-12t-2-12q-7-18-27-18zM27 579h416q11 0 19-9v0q7-9 7-21t-7-20v-1q-8-9-19-9h-416q-11 0-19 9l-1 1q-7 8-7 20t7 21h1q7 9 19 9zM27 798h416q11 0 19-9v0q7-9 7-21t-7-20v0q-8-10-19-10h-416q-12 0-19 10h-1q-7 8-7 20t7 21h1q7 9 19 9zM698 886q14 1 29 1 93 0 159-66t66-159q0-21-4-41h-55q5 20 5 41 0 71-50 121.5t-121 50.5q-15 0-29-3v55zM859 480l161-277q2-4 3-7v0q1-4 1-8v0q0-12-9-21t-22-9q-8 0-14.5 4t-10.5 11v0l-162 278-10-4 1 1q-34-11-70-11-94 0-159.5 66t-65.5 159 66 159q54 55 130 65v-55q-54-9-92-48-51-50-51-121t50.5-121 121.5-50 121 50q34 34 45 80h55q-13-69-62-118-13-13-27-23z" />
<glyph unicode="&#xe606;" glyph-name="juejin" horiz-adv-x="1272" d="M729.641 730.723l-95.315 75.152-104.741-82.688 104.741-83.502 105.091 83.502-9.776 7.536zM1090.853 439.251l-456.789-360.194-456.498 359.99-67.442-54.175 523.94-413.117 524.231 413.35-67.442 54.145zM634.065 410.040l-248.586 195.954-67.413-54.116 315.97-249.168 316.29 249.401-67.413 54.145-248.848-196.216z" />
<glyph unicode="&#xe609;" glyph-name="mail" d="M51 525v-485h928v485l-464-230zM51 728v-129l464-230 464 230v129h-928z" />
<glyph unicode="&#xe60c;" glyph-name="close" d="M512 301l-321-320-82 82 320 321-320 321 82 82 321-320 321 320 82-82-320-321 320-321-82-82z" />
<glyph unicode="&#xe614;" glyph-name="loading" d="M384 852q0 53 37.5 90.5t90.5 37.5 90.5-37.5 37.5-90.5-37.5-90.5-90.5-37.5-90.5 37.5-37.5 90.5zM656 740q0 53 37.5 90.5t90.5 37.5 90.5-37.5 37.5-90.5-37.5-90.5-90.5-37.5-90.5 37.5-37.5 90.5zM832 468q0 27 18.5 45.5t45.5 18.5 45.5-18.5 18.5-45.5-18.5-45.5-45.5-18.5-45.5 18.5-18.5 45.5zM720 196.5q0 26.5 18.5 45t45 18.5 45.5-18.5 19-45-19-45.5-45.5-19-45 19-18.5 45.5zM448 84v0q0 27 18.5 45.5t45.5 18.5 45.5-18.5 18.5-45.5v0q0-27-18.5-45.5t-45.5-18.5-45.5 18.5-18.5 45.5zM176 196v0q0 27 19 45.5t45.5 18.5 45-18.5 18.5-45.5v0q0-26-18.5-45t-45-19-45.5 19-19 45zM144 740v0q0 39 28.5 67.5t68 28.5 67.5-28.5 28-67.5v0q0-40-28-68t-67.5-28-68 28-28.5 68zM56 468q0 30 21 51t51 21 51-21 21-51-21-51-51-21-51 21-21 51z" />
<glyph unicode="&#xe618;" glyph-name="share" d="M0 896v0 0zM864 192q-68 0-115-49l-431 216q2 12 2 25t-2 25l431 216q47-49 115-49 66 0 113 47t47 113-47 113-113 47-113-47-47-113q0-13 2-25l-431-216q-47 49-115 49-66 0-113-47t-47-113 47-113 113-47q68 0 115 49l431-216q-2-12-2-25 0-66 47-113t113-47 113 47 47 113-47 113-113 47z" />
<glyph unicode="&#xe619;" glyph-name="weibo" d="M730 404l15 35q29 92-54 107-67 12-205-33 34 29 33 73t-30 65q-30 19-69 18.5t-84-22.5-90-54.5-86-76.5-72.5-89.5-50.5-93-19-86.5q0-44 24.5-89t71-84 126.5-64 180-25q101 0 183 21t132.5 53 85 71.5 48 75 13.5 65.5q0 37-15.5 64t-38 39.5-44.5 20-38 8.5zM432 34.5q-123-11.5-215.5 39.5t-100 134.5 73.5 150.5 204 78.5 215.5-39.5 100.5-134.5-73.5-150.5-204.5-78.5zM374 357q-67-11-107-59.5t-30.5-105.5 63.5-89.5 120.5-21 107 60 30.5 105.5-63.5 89-120.5 21zM358.5 140q-21.5-6-40.5 4t-24.5 29.5 6 37.5 33 24 40.5-3.5 24.5-29.5-6-38-33-24zM433 225q-11 0-19 7.5t-8 18.5 8 19 19 8 19-8 8-19-8-18.5-19-7.5zM951 688q-44 57-113 80.5t-153 11.5q-14-2-23-13.5t-7-25.5 13.5-22.5 26.5-6.5q134 19 201-66 30-39 38-89t-10-93q-5-13 0.5-26t18.5-19q7-2 13-2 24 0 32 21 25 60 14.5 129t-51.5 121zM718 654q-14-2-22.5-13.5t-6.5-25.5 13.5-22.5 25.5-6.5q49 7 72-22 10-13 12.5-30t-3.5-32q-5-13 0.5-26t18.5-19q7-2 13-2 24 0 33 21 12 32 7 67.5t-27 62.5q-47 61-136 48z" />
<glyph unicode="&#xe61b;" glyph-name="zhihu" d="M504 489h-147v224h130q16 0 27 11t11 26.5-11 27-27 11.5h-248q6 28 10 73v3q1 11 2 16 1 16-8.5 28t-25.5 14-28.5-8-13.5-26q-1-6-2-20v-1q-3-29-6-46t-12.5-46.5-30.5-58-53-58.5q-12-11-12.5-26.5t10.5-27.5 28-12q15 0 26 10 57 52 88 110h70v-224h-175q-16 0-27-11t-11-27 11-27 27-11h173q-14-234-190-322-14-7-19-22t2-29q11-21 34-21 10 0 18 4 156 78 208 250 3-8 8-15l121-143q12-14 30-14 13 0 24 9 12 10 13.5 26t-8.5 28l-121 143q-10 12-26 13.5t-28-8.5l-3-3q11 49 14 104h148q15 0 26.5 11t11.5 27-11.5 27-26.5 11zM922 796h-299q-16 0-27-11t-11-27v-553q0-15 11-26.5t27-11.5h23l5-93v-1q2-22 23-31 7-3 15-3 14 0 24 8l1 1 120 119h88q16 0 27.5 11.5t11.5 26.5v553q0 16-11.5 27t-27.5 11zM681 243h-19v477h222v-477h-64q-14 0-24-8l-1-1-73-76-3 50v1q-1 15-12 24.5t-26 9.5z" />
<glyph unicode="&#xe61f;" glyph-name="weixin" horiz-adv-x="1171" d="M331 717q0 23-14 37.5t-38 14.5-43-15-19-37q0-23 19-37.5t43-14.5 38 14 14 38v0zM756 427q0 16-14.5 28.5t-37.5 12.5q-15 0-28-13t-13-28q0-16 13-29t28-13q23 0 37.5 12.5t14.5 29.5zM621 717q0 23-14 37.5t-37 14.5q-25 0-44-15t-19-37q0-23 19-37.5t44-14.5q23 0 37 14t14 38v0zM984 427q0 16-15 28.5t-37 12.5q-15 0-28-13t-13-28q0-16 13-29t28-13q22 0 37 12.5t15 29.5zM832 654q-18 2-40 2-97 0-178-44t-127.5-119-46.5-164q0-45 13-87-20-2-39-2-15 0-28.5 1t-31 3.5-25.5 4-31.5 6-28.5 6.5l-144-73 41 125q-166 116-166 280 0 96 55.5 177t151 128 207.5 47q101 0 190.5-38t149.5-104.5 78-148.5v0zM1170 333q0-67-39-127.5t-106-110.5l32-104-114 63q-86-21-125-21-96 0-177 40t-128 109-47 151 46.5 151 128 109.5 177.5 40.5q92 0 173.5-40.5t130-110 48.5-150.5v0z" />
<glyph unicode="&#xe622;" glyph-name="bilibili" horiz-adv-x="1130" d="M275 928q-13-13-18-25-3-9 5.5-35t14-26 17-12.5 11.5-17.5q0-12-12-19t-33-7q-25 0-66-16t-58-33q-17-15-37-54l-20-39v-453l20-39q18-34 32-48.5t48-33.5l34-18 702-4 40 19q37 18 56.5 37t35.5 55l18 36v446l-17 35q-16 35-41 58-22 22-57 37t-61 15q-39 0-46 15.5t21 40.5q14 14 18 21.5t4 22.5q0 24-16.5 40.5t-28.5 16.5q-8 0-21-5.5t-18-10.5q-15-16-73-72l-70-69-81 1q-79 0-90 4-11 5-70 63-40 39-60 57t-36.5 27-25.5 5.5-21-15.5zM904 675q11-1 31-19l21-19 1-209q1-144 0-179.5t-8-48.5q-21-38-63-40-25-1-340 0l-315 1-43 43v426l20 22q19 22 40 24 12 1 317.5 0.5t338.5-1.5zM347 513q-14-16-17-25t-3-40q0-29 2.5-38t15.5-23q40-47 81 2 8 9 10.5 20t2.5 42q0 34-2.5 42.5t-16.5 22.5q-20 20-36.5 19.5t-36.5-22.5zM726 516q-14-14-16.5-23t-2.5-43q0-35 2.5-44t15.5-21q18-17 29-20t27 6q40 23 36 88-2 25-5 34.5t-16 22.5q-18 19-34.5 19t-35.5-19z" />
<glyph unicode="&#xe625;" glyph-name="back" d="M321 332q-25 0-40 19-14 17-12 38t19 35l327 267q16 14 37.5 12t35-19 11.5-38-19-35l-327-267q-14-12-32-12zM647 65q-18 0-32 12l-327 267q-17 14-19 35t11.5 37.5 35 19 37.5-11.5l327-267q17-14 19-35t-12-38q-15-19-40-19z" />
<glyph unicode="&#xe62d;" glyph-name="qq" d="M200 428l-2 6-1 6-1 4v15l1 6 2 7 2 6 3 8 4 8 5 7v6l1 5 1 7 2 7 2 9 2 4 2 3 2 4 3 3v19l2 10 1 11 3 14 4 14 3 8 3 9 3 8 4 8 8 18 6 9 9 15 3 4 14 20 16 20 10 10 9 10 12 10 7 7 9 7 20 12 9 5 22 10 12 4 11 4 12 4 12 2 13 3 26 4 13 1 14 1h40l14-1 13-2 14-2 39-9 14-4 13-4 12-5 13-6 24-12 11-8 10-6 4-4 5-3 9-8 8-7 7-8 8-8 6-9 7-8 5-9 5-8 6-10 4-8 8-17 4-9 6-18 6-24 5-16 4-26 1-10 3-16v-3l2-3 5-8 3-6 3-5 4-7 3-7 2-8 3-8 1-9 1-4 1-5v-5l-1-4v-6l-1-5-3-11-2-5-2-6v-2l1-1 2-5 12-17 10-14 4-9 6-9 12-22 6-13 7-15 4-8 6-18 3-8 3-9 2-8 3-16 2-16 2-14v-21l-1-7-2-12-2-11-3-10-1-5-3-4-4-8-3-3-2-3-3-3-6-4-3-1-2-1h-4l-2 1-5 2-2 1-2 2-3 2-2 3-4 4-5 6-3 6-8 12-5 10-5 11-1 1h-1l-2-2-2-3-2-4-4-10-6-16-7-18-6-9-6-10-7-10-7-11-4-5-15-15 1-1 1-2 5-3 23-10 9-6 9-5 10-7 8-7 4-3 3-3 3-5 2-4 1-4 2-4 1-4 1-5-1-3v-3l-1-3-2-3v-2l-2-3-4-5-3-5-3-3-3-2-6-5-14-8-8-3-9-3-5-2-4-1-10-3-11-2-10-2-12-2h-12l-12-2h-38l-14 1-12 1-14 2-14 1-14 2-14 4-13 3-14 3-14 5-13 4-7 3-7 2-4 2h-15l-13 1-7 1-8 1-6-5-7-5-10-5-11-6-14-6-16-6-8-2-9-3-13-2-7-1h-8l-9-1-10-1h-41l-22 1-23 2-11 2-11 1-10 2-11 2-10 3-10 2-9 4-8 3-8 4-7 4-6 5-3 2-3 3-6 9-4 12-1 4v3l1 4v3l1 4v12l2 4 1 5 3 5 2 2 1 3 5 5 6 4 3 3 5 1 3 2 5 3 5 1 6 2 18 3 8 1h2l1 1v1l-1 2-4 2-10 8-14 12-8 8-8 10-10 10-3 6-5 6-4 7-3 8-5 7-3 9-4 8-4 9-2 9-3 11-1 1h-1v1h-1l-2-2-3-6-1-3-5-8-2-5-4-4-4-5-4-6-15-15-6-3-6-4-6-2-7-2-6-1h-2l-5 5-2 6-4 8-1 6-1 5-2 11-1 7v22l1 17 1 8 2 9 1 10 3 8 6 20 4 10 3 10 6 10 4 10 6 10 7 11 7 10 7 11 7 7 7 9 9 8 3 4 5 5 14 12 11 10 9 6z" />
<glyph unicode="&#xe62f;" glyph-name="plane" d="M496 939l-361-929q-3-8 2.5-15.5t15.5-7.5l327 30 32 761 32-761 327-30q10-1 16 7 3 4 3 10 0 4-1 7l-361 929q-4 11-16 11-12-1-16-12z" />
<glyph unicode="&#xe635;" glyph-name="google" d="M626 909h-260q-97 0-169-61.5t-72-142.5q0-84 53-140t143-56q10 0 25 1-14-26-14-50 0-21 9-35t29-33q-8 0-23.5-0.5t-23.5-0.5q-109 0-183-62.5t-74-140.5q0-72 80.5-116t197.5-44q124 0 201 59t77 137q0 61-20 98t-81 83q-2 2-6 5-70 52-70 75 0 22 10 37.5t42 40.5q77 60 77 139 0 48-19.5 87t-54.5 60h68zM538 241q3-14 3-28 0-64-47-102.5t-150-38.5q-77 0-128.5 42.5t-51.5 102.5q0 59 57.5 102t135.5 42q35-1 67-11 8-5 27-18t26-18 20.5-16 19.5-18 12-17.5 9-21.5zM371 549q-54 2-97 46t-51 112q-10 69 21 115.5t83 44.5q52-1 92.5-50t49.5-119q9-69-18-110t-80-39zM838 790v119h-59v-119h-120v-60h120v-120h59v120h120v60h-120z" />
<glyph unicode="&#xe649;" glyph-name="jianshu" d="M324.843 813.088l88.908-58.119c4.497-4.613 3.459-9.11-3.459-13.723-11.416-4.613-23.87-13.723-37.593-27.33l-13.723-17.067 116.238 6.804 44.396 47.856 61.463-51.315 3.459-6.804c-2.306-2.306-4.613-3.459-6.804-3.459l-150.371-6.804c29.636-18.22 44.396-37.593 44.396-58.119-2.306-18.22-12.569-29.636-30.789-34.133-18.22-2.306-27.33 2.191-27.33 13.723-2.306 38.746-7.957 63.769-17.067 75.186l-58.119-3.459c-54.659-50.162-112.778-101.362-174.357-153.831-4.613-4.613-6.804-2.306-6.804 6.804 77.492 98.018 133.42 192.577 167.553 283.791zM335.106 430.241l-6.804-338.335c-2.306-31.827-19.373-64.923-51.315-99.171-9.11-6.804-14.876-6.804-17.067 0l6.804 249.542v136.764l-3.459 123.041 78.645-30.789c2.191 0 4.497-1.153 6.804-3.459l-3.459-6.804-10.148-30.789zM365.895 594.335c66.076-20.526 99.171-38.746 99.171-54.659-4.613-27.33-14.876-45.55-30.789-54.659-11.416-6.804-20.526-3.459-27.33 10.263-18.22 50.047-34.133 80.836-47.856 92.252-2.306 6.804 0 8.995 6.804 6.804zM468.411 187.618c-6.804-20.526-19.373-37.593-37.593-51.315-9.11-6.804-14.876-4.613-17.067 6.804v294.054c-2.306 6.804 0 7.957 6.804 3.459l47.856-30.789 157.175 6.804 27.33 37.593 68.382-37.593c2.191 0 3.459-2.306 3.459-6.804l-20.526-30.789 3.459-146.912c-2.306-22.832-15.914-50.162-41.052-81.989-11.416-9.11-20.526-9.11-27.33 0-2.306 6.804-6.804 14.76-13.723 23.87-4.613 9.11-7.957 15.914-10.263 20.526l-146.912-6.919zM629.045 399.452l-164.094-3.459v-85.449l140.108 6.804c4.497 0 6.804-2.306 6.804-6.804 0-4.613-3.459-6.804-10.263-6.804l-136.764-6.804 3.459-95.712 160.634 6.804v191.423h0.115zM642.768 508.886c-43.359 0-78.645-3.459-105.975-10.263l-23.87 23.87 266.494 13.723 34.133 37.593 71.726-44.396c0-2.306 1.153-3.459 3.459-3.459 2.191-2.306 1.153-4.613-3.459-6.804l-27.33-34.133 3.459-194.768 3.459-136.764c4.497-63.769-29.636-119.582-102.515-167.438-4.613-2.191-7.957-2.191-10.263 0-2.306 2.306-2.306 5.766 0 10.263-2.306 31.942-13.723 55.813-34.133 71.726-2.306 2.306-3.459 4.613-3.459 6.804 0 2.306 1.153 3.459 3.459 3.459 47.856-2.191 69.42 9.11 64.923 34.133l-3.459 403.258-136.649-6.804zM642.768 819.892l85.449-51.315c4.497-2.306 3.459-5.766-3.459-10.263-13.723-4.613-25.139-13.723-34.133-27.33-2.306-2.306-4.613-5.766-6.804-10.263-4.613-6.804-9.11-12.569-13.723-17.067l146.912 6.804 44.396 47.856 61.463-51.315c4.497-4.613 4.497-6.804 0-6.804l-187.964-10.263c45.55-25.139 68.382-47.856 68.382-68.382-4.613-20.526-18.22-36.44-41.052-47.856-18.22-2.306-27.33 3.459-27.33 17.067-2.306 47.856-10.263 80.836-23.87 99.171l-54.659-3.459c-6.804-6.804-17.067-18.22-30.789-34.133-27.33-34.133-51.315-61.463-71.726-81.989-4.613-2.306-7.957-3.459-10.263-3.459s-2.306 2.191 0 6.804c45.55 95.827 78.645 177.816 99.171 246.198z" />
<glyph unicode="&#xe64a;" glyph-name="smile" d="M511 20q-91 0-174 35.5t-143 95.5-95.5 143-35.5 174 35.5 174 95.5 143 143 95.5 174 35.5 174-35.5 143-95.5 95.5-143 35.5-174-35.5-174-95.5-143-143-95.5-174-35.5zM511 852q-104 0-192.5-51.5t-140-140-51.5-192.5 51.5-192.5 140-140 192.5-51.5 192.5 51.5 140 140 51.5 192.5-51.5 192.5-140 140-192.5 51.5zM512 207q-67 0-126.5 29t-100.5 81q-8 11-6.5 24t12 21 23.5 6.5 21-11.5q33-41 79-63.5t98-22.5q53 0 99.5 22.5t78.5 64.5q8 11 21 12.5t23.5-6.5 12.5-21-7-24q-41-53-100.5-82.5t-127.5-29.5zM368 465q-20 0-34 14t-14 34v64q0 20 14 34t34 14 34-14 14-34v-64q0-20-14-34t-34-14zM656 465q-20 0-34 14t-14 34v64q0 20 14 34t34 14 34-14 14-34v-64q0-20-14-34t-34-14z" />
<glyph unicode="&#xe64c;" glyph-name="douban" d="M823 906h-621q-56 0-95.5-40t-39.5-96v-621q0-56 39.5-95.5t95.5-39.5h621q56 0 96 39.5t40 95.5v621q0 56-40 96t-96 40zM230 773h587v-71h-587v71zM770 655v-281h-493v281h493zM841 162h-634v71h185q-6 16-14.5 33t-13 24-20 30-17.5 26l65 26q25-37 69-139h124q45 86 64 139l71-26q-40-91-60-113h181v-71zM348 585h352v-141h-352v141z" />
<glyph unicode="&#xe64e;" glyph-name="back1" d="M222 329q10-13 25-21l7-6q17-14 41-14t41 14q24 21 14 49 3 11 3 20v55h331q71 0 121-45.5t50-109.5q0-48-29.5-86.5t-76.5-56.5l5-4q-4-6-4-12 0-11 9-19t21-8q21 0 29 18 69 29 110.5 84.5t41.5 122.5q0 96-80.5 163.5t-194.5 67.5h-333v54q0 9-3 19 12 30-14 51-17 14-41 14t-41-14l-9-8q-12-7-20-17l-131-112q-9-4-14-8-18-15-17-37-1-21 17-36 5-5 14-9l128-109zM208 487v-7l-4 3 4 4z" />
<glyph unicode="&#xe651;" glyph-name="tuding" d="M949 77l-223 223 206 207q11 11 10 26t-13 25q-72 58-163 74t-175-12l-215 170q2 60-30 110-9 13-25 14.5t-27-9.5l-219-219q-11-11-9.5-27t14.5-24q50-33 111-31l170-215q-29-84-12.5-175.5t74.5-163.5q10-12 25-13t26 10l206 207 223-223q10-10 23.5-10t23 9.5 9.5 23-10 23.5z" />
<glyph unicode="&#xe65a;" glyph-name="roundrightfill" d="M512 916q-185 0-316.5-131.5t-131.5-316.5 131.5-316.5 316.5-131.5 316.5 131.5 131.5 316.5-131.5 316.5-316.5 131.5zM662 444l-160-158q-10-10-23-10t-22.5 9.5-9.5 23 10 22.5l137 136-136 137q-10 9-10 22.5t9.5 22.5 23 9 22.5-9l159-160q4-4 7-10v0q8-20-7-35z" />
<glyph unicode="&#xe65b;" glyph-name="search" d="M996-100q-28-28-68-28t-68 28l-170 170q-111-72-241-72-92 0-175 36t-143 96-95.5 143-35.5 174.5 35.5 174.5 95.5 143 143.5 95.5 174.5 35.5 174-35.5 143-95.5 96-143 36-175q0-130-72-241l170-170q28-28 28-68t-28-68v0zM449 768q-87 0-161-43t-117-117-43-161 43-161 117-116.5 161-42.5 161 42.5 116.5 116.5 42.5 161-42.5 161-116.5 117-161 43z" />
<glyph unicode="&#xe667;" glyph-name="calendar" d="M870 847h-37v-182q0-29-20.5-49.5t-49.5-20.5-49.5 20.5-20.5 49.5v182h-361v-181q0-29-20.5-49.5t-49.5-20.5-49.5 20.5-20.5 49.5v181h-38q-37 0-63.5-26.5t-26.5-63.5v-196h896v196q0 37-26.5 63.5t-63.5 26.5zM315 685q0-22-15.5-38t-37.5-16v0q-22 0-38 16t-16 38v176q0 23 16 38.5t38 15.5v0q22 0 37.5-15.5t15.5-38.5v-176zM818 685q0-22-15.5-38t-38.5-16v0q-22 0-37.5 16t-15.5 38v176q0 23 15.5 38.5t37.5 15.5v0q23 0 38.5-15.5t15.5-38.5v-176zM908 523v-358q0-38-26.5-64t-63.5-26h-613q-37 0-63 26t-26 64v358h-52v-412q0-37 26.5-63.5t63.5-26.5h716q37 0 63.5 26.5t26.5 63.5v412h-52zM537 263h71q9-41 42-41 20 0 31 12t11 34q0 40-42 41h-22v44h10q25 1 34.5 11t9.5 31q0 14-9.5 22.5t-24.5 8.5q-13 0-21-4t-10.5-8.5-6.5-15.5l-66-1q23 77 106 78 101-3 105-82 0-38-45-58 57-19 57-69-4-83-117-87-47 0-76 22t-37 62zM489 245v-62h-227v40q39 61 95 97 57 38 57 70 0 27-34 27-41-1-41-36h-72q3 48 36.5 71t82.5 23q99-4 106-84 4-57-73-105-24-14-31.5-19.5t-21.5-21.5h123z" />
<glyph unicode="&#xe680;" glyph-name="qzone" horiz-adv-x="1117" d="M813 342q12-36 28-85-210 20-362 47-1 5 24 26.5t63.5 50 83 62 82.5 62 62.5 48.5 22.5 24q-86 14-173.5 19.5t-150.5 3-113-7.5-76-10l-25-5 375-52q-354-237-359-259 182-33 550-22 83-258 53-272-20-9-63.5 7t-92.5 45-95.5 59.5-76.5 52.5-30 23q-3-3-9.5-7.5t-26-18.5-38.5-27-45.5-31-50.5-32.5-49-29-44.5-24-35.5-14-23-0.5q-19 9-23.5 50.5t3 94 18 103 19.5 85 10 34.5q-4 3-9.5 7.5t-23 19-34.5 29-39.5 34.5-42 38.5-39 38.5-32.5 36.5-20 30.5-4 23q6 23 109 40t185 23 99 6q5 12 12 32.5t28.5 72.5 40.5 92.5 41.5 75.5 38.5 39q24 5 66-69t72.5-147 30.5-77q4 0 12-1t32.5-4l49-6t57.5-8 62-9.5 59-10 52.5-11 38-11 19.5-10.5q19-24-199-199-60-49-94-75zM951 248q-42-2-106-4 0 3-1.5 7t-2.5 6z" />
<glyph unicode="&#xe682;" glyph-name="list" d="M896 724h-288q-13 0-22.5 9.5t-9.5 22.5 9.5 22.5 22.5 9.5h288q13 0 22.5-9.5t9.5-22.5-9.5-22.5-22.5-9.5zM896 564h-288q-13 0-22.5 9.5t-9.5 22.5 9.5 22.5 22.5 9.5h288q13 0 22.5-9.5t9.5-22.5-9.5-22.5-22.5-9.5zM896 308h-288q-13 0-22.5 9.5t-9.5 22.5 9.5 22.5 22.5 9.5h288q13 0 22.5-9.5t9.5-22.5-9.5-22.5-22.5-9.5zM896 148h-288q-13 0-22.5 9.5t-9.5 22.5 9.5 22.5 22.5 9.5h288q13 0 22.5-9.5t9.5-22.5-9.5-22.5-22.5-9.5zM384 500h-192q-40 0-68 28t-28 68v192q0 40 28 68t68 28h192q40 0 68-28t28-68v-192q0-40-28-68t-68-28zM192 820q-13 0-22.5-9.5t-9.5-22.5v-192q0-13 9.5-22.5t22.5-9.5h192q13 0 22.5 9.5t9.5 22.5v192q0 13-9.5 22.5t-22.5 9.5h-192zM384 52h-192q-40 0-68 28t-28 68v192q0 40 28 68t68 28h192q40 0 68-28t28-68v-192q0-40-28-68t-68-28zM192 372q-13 0-22.5-9.5t-9.5-22.5v-192q0-13 9.5-22.5t22.5-9.5h192q13 0 22.5 9.5t9.5 22.5v192q0 13-9.5 22.5t-22.5 9.5h-192z" />
<glyph unicode="&#xe6ab;" glyph-name="link" d="M969 479l-94-94q-44-44-104.5-53.5t-113.5 16.5l218 218q18 19 18 45.5t-18 44.5l-91 91q-19 19-45 19t-45-19l-218-218q-26 53-16.5 113.5t53.5 104.5l94 94q56 57 136 57t136-57l90-90q57-56 57-135.5t-57-136.5zM331.5 204q-18.5 19-18.5 45.5t19 44.5l271 272q19 19 45.5 19t45.5-19 19-45.5-19-45.5l-272-271q-18-19-45-19t-45.5 19zM151 113l90-90q19-19 45.5-19t45.5 19l218 218q26-53 16-114t-53-104l-87-95q-56-56-135.5-56t-135.5 56l-99 99q-56 56-56 135.5t56 135.5l95 87q43 43 104 53t114-16l-218-218q-19-19-19-45.5t19-45.5z" />
<glyph unicode="&#xe6b0;" glyph-name="tumblr" d="M843 880h-662q-68 0-116.5-48.5t-48.5-116.5v-662q0-68 48.5-116.5t116.5-48.5h662q68 0 116.5 48.5t48.5 116.5v662q0 68-48.5 116.5t-116.5 48.5zM725 81q-44-21-80-29-35-8-77-8-37 0-73 12t-61.5 33.5-35.5 46.5-10 72v240h-93v97q53 17 77 37 29 25 46.5 59t23.5 87h98v-158h158v-122h-158v-176q0-64 3-74 7-18 26-29 23-14 52-14 52 0 104 34v-108z" />
<glyph unicode="&#xe6bb;" glyph-name="home" d="M982 576l-409 320q-26 21-62 21t-62-21l-406-321q-10-8-11.5-21t6.5-23.5 21-12 24 6.5l13 11v-388q0-40 34-68t74-28h640q38 0 61 26.5t23 69.5v389l14-12q9-7 20-7 16 0 25 13 9 10 7 23t-12 22zM608 183v-67h-192v179q0 31 25 54t71 23 71-23 25-54v-112z" />
<glyph unicode="&#xe6c7;" glyph-name="psp" d="M263 711q42 0 79-19.5t62-52.5h217q24 32 60 50t78 18q72 0 123.5-51.5t51.5-123.5q0-29-9-55 39-140 32-303-21-22-46-33.5t-41.5-14.5-46.5-5q-79 96-151 254-24 9-41 37h-239q-17-27-42-36-72-157-152-255-30 2-46 5t-41.5 14.5-46.5 33.5q-6 165 33 305-9 27-9 57 0 72 51 123.5t124 51.5zM433 549v-39h65v39h-65zM776 517q-14-3-22-15t-5-26.5 15.5-22 26.5-4.5 22 15 5 26.5-15.5 22-26.5 4.5zM694 573q-14-3-22-15t-5-26.5 15.5-22.5 26.5-4.5 22 15.5 5 26.5-15.5 22-26.5 4.5zM744 653q-14-3-22-15.5t-5-26.5 15.5-22 26.5-4.5 22 15.5 5 26-15.5 22-26.5 5zM826 605q-14-3-22-15t-4.5-26.5 15.5-22 26-4.5 22 15 5 26.5-15.5 22-26.5 4.5zM346 593l-58-46 45-59zM294 461l-46 59-59-46zM161 519l54 42-42 54zM215 644l42-54 53 42zM519 549v-39h65v39h-65zM880 785q-86 42-186 0v-51q32 13 66 13 69 0 120-47v85zM131 785v-85q51 47 120 47 34 0 66-13v51q-100 43-186 0z" />
<glyph unicode="&#xe6d4;" glyph-name="linkedin" d="M259 24h-191v637h191v-637zM958 24h-192v338q0 132-93 132-74 0-95-73v-397h-192q3 572 0 637h161v-127h2q66 107 189 107 105 0 158-65 62-71 62-192v-360zM262 818q0-40-29-67.5t-69.5-27.5-69.5 27.5-29 67.5 29 68 69.5 28 69.5-28 29-68v0 0z" />
<glyph unicode="&#xe6f9;" glyph-name="price-tags" horiz-adv-x="1025" d="M256 724q0 30-21.5 51.5t-51.5 21.5-51.5-21.5-21.5-51.5 21.5-51.5 51.5-21.5 51.5 21.5 21.5 51.5zM866 395q0-30-21-52l-281-281q-22-21-52-21t-51 21l-409 409q-22 22-37 58.5t-15 66.5v238q0 29 21.5 51t51.5 22h238q30 0 66.5-15t58.5-37l409-408q21-22 21-52v0z" />
<glyph unicode="&#xe6fe;" glyph-name="book" d="M289 86v798h618q11 0 19-7.5t8-18.5v-745q0-11-8-19t-19-8v0h-618zM907-116q11 0 19 7.5t8 18.5v100q0 10-8 18t-19 8-18.5-8-7.5-18v-73h-592v-53h618zM218-63q-30 0-51.5 20.5t-23.5 50.5l1 2v6q1 29 22.5 49.5t51.5 20.5h18v798h-18q-53 0-90-37.5t-37-89.5v-3q-1-655 0-738 0-1-0.5-2.5t-0.5-2.5q0-50 35-86.5t85-40.5h26v53h-18z" />
<glyph unicode="&#xe700;" glyph-name="sort" d="M384 660h512q13 0 22.5 9.5t9.5 22.5-9.5 22.5-22.5 9.5h-512q-13 0-22.5-9.5t-9.5-22.5 9.5-22.5 22.5-9.5zM896 500h-512q-13 0-22.5-9.5t-9.5-22.5 9.5-22.5 22.5-9.5h512q13 0 22.5 9.5t9.5 22.5-9.5 22.5-22.5 9.5zM896 276h-512q-13 0-22.5-9.5t-9.5-22.5 9.5-22.5 22.5-9.5h512q13 0 22.5 9.5t9.5 22.5-9.5 22.5-22.5 9.5zM128 692q0 26 19 45t45 19 45-19 19-45-19-45-45-19-45 19-19 45zM128 468q0 26 19 45t45 19 45-19 19-45-19-45-45-19-45 19-19 45zM128 244q0 26 19 45t45 19 45-19 19-45-19-45-45-19-45 19-19 45z" />
<glyph unicode="&#xe71f;" glyph-name="circle-left" d="M512 20q-185 0-316.5 131.5t-131.5 316.5 131.5 316.5 316.5 131.5 316.5-131.5 131.5-316.5-131.5-316.5-316.5-131.5zM512 852q-159 0-271.5-112.5t-112.5-271.5 112.5-271.5 271.5-112.5 271.5 112.5 112.5 271.5-112.5 271.5-271.5 112.5zM290 456l1-1q2-6 6-10v0 0l159-159q10-10 23-10t22.5 9.5 9.5 22.5-9 23l-104 103h305q14 0 23 9.5t9 23-9 22.5-23 9h-306l106 105q9 10 9 23t-9 22.5-23 9.5q-13 0-22-9l-161-159q-15-15-7-34z" />
<glyph unicode="&#xe720;" glyph-name="circle-right" d="M512 20q-185 0-316.5 131.5t-131.5 316.5 131.5 316.5 316.5 131.5 316.5-131.5 131.5-316.5-131.5-316.5-316.5-131.5zM512 852q-159 0-271.5-112.5t-112.5-271.5 112.5-271.5 271.5-112.5 271.5 112.5 112.5 271.5-112.5 271.5-271.5 112.5zM733 479v0q-3 6-7 10v0 0l-159 160q-9 9-22.5 9t-23-9-9.5-22.5 10-22.5l103-104h-305q-13 0-22.5-9.5t-9.5-22.5 9.5-22.5 22.5-9.5h307l-106-105q-10-9-10-22.5t9.5-23 22.5-9.5 23 10l160 158q15 15 7 35z" />
<glyph unicode="&#xe799;" glyph-name="roundleftfill" d="M512 916q-185 0-316.5-131.5t-131.5-316.5 131.5-316.5 316.5-131.5 316.5 131.5 131.5 316.5-131.5 316.5-316.5 131.5zM566 332q10-9 10-22.5t-9.5-22.5-23-9-22.5 9l-159 160q-3 3-6 8 0 1-0.5 1.5l-0.5 0.5q-8 20 7 35l160 158q10 10 23 10t22.5-9.5 9.5-23-10-22.5l-137-136z" />
<glyph unicode="&#xe7b7;" glyph-name="film" d="M0 768v-768h1024v768h-1024zM192 64h-128v128h128v-128zM192 320h-128v128h128v-128zM192 576h-128v128h128v-128zM768 64h-512v640h512v-640zM960 64h-128v128h128v-128zM960 320h-128v128h128v-128zM960 576h-128v128h128v-128zM384 576v-384l256 192z" />
<glyph unicode="&#xe7f5;" glyph-name="quo-left" d="M826 470h-128q0 79 56.5 135.5t135.5 56.5q27 0 45.5 18.5t18.5 45-18.5 45.5-45.5 19q-87 0-160.5-43t-116.5-116.5-43-160.5v-256q0-53 37.5-90.5t90.5-37.5h128q53 0 90.5 37.5t37.5 90.5v128q0 53-37.5 90.5t-90.5 37.5zM378 662q27 0 45.5 18.5t18.5 45-18.5 45.5-45.5 19q-86 0-160-43t-117-116.5-43-160.5v-256q0-53 37.5-90.5t90.5-37.5h128q53 0 90.5 37.5t37.5 90.5v128q0 53-37.5 90.5t-90.5 37.5h-128q0 79 56.5 135.5t135.5 56.5z" />
<glyph unicode="&#xe7f6;" glyph-name="quo-right" d="M352 820h-128q-53 0-90.5-37.5t-37.5-90.5v-128q0-53 37.5-90.5t90.5-37.5h128q0-79-56-135.5t-136-56.5q-27 0-45.5-18.5t-18.5-45.5 18.5-45.5 45.5-18.5q133 0 226.5 93.5t93.5 226.5v256q0 53-37.5 90.5t-90.5 37.5zM864 820h-128q-53 0-90.5-37.5t-37.5-90.5v-128q0-53 37.5-90.5t90.5-37.5h128q0-79-56.5-135.5t-135.5-56.5q-27 0-45.5-18.5t-18.5-45.5 18.5-45.5 45.5-18.5q133 0 226.5 93.5t93.5 226.5v256q0 53-37.5 90.5t-90.5 37.5z" />
<glyph unicode="&#xe877;" glyph-name="rss" d="M329 128q0-46-32-78t-77.5-32-77.5 32-32 78 32 78 77.5 32 77.5-32 32-78zM622 58q1-16-10-28-10-12-27-12h-77q-14 0-24.5 9.5t-11.5 23.5q-13 131-105.5 224t-223.5 106q-14 1-23.5 11t-9.5 25v77q0 16 12 27 9 9 24 9h3q91-7 174.5-45.5t148.5-103.5 103.5-148.5 46.5-174.5v0zM914 57q1-16-10-27-10-12-26-12h-82q-15 0-25.5 10t-11.5 25q-6 122-57 233t-132.5 192-192 132-233.5 59q-14 0-24 10.5t-10 25.5v81q0 16 11 27 10 10 25 10h2q150-8 286.5-69t243.5-168q106-106 167.5-243t68.5-286v0z" />
<glyph unicode="&#xe900;" glyph-name="ghub" horiz-adv-x="1039" d="M969.797 634.47c-47.109 81.223-108.838 144.576-188.436 191.685s-167.318 69.851-261.537 69.851c-94.218 0-181.939-22.742-261.537-69.851s-141.327-110.463-188.436-191.685c-47.109-79.598-69.851-167.318-69.851-263.161 0-113.712 32.489-217.676 99.092-308.646s151.074-154.323 256.663-190.061c11.371-1.624 21.118 0 27.616 4.873s8.122 12.996 8.122 21.118v97.467l-16.245-3.249c-9.747-1.624-22.742-3.249-37.362-1.624-14.62 0-30.865 1.624-47.109 4.873s-30.865 9.747-45.485 21.118c-14.62 11.371-24.367 24.367-29.24 42.236l-6.498 16.245c-4.873 9.747-11.371 22.742-21.118 34.113-9.747 12.996-19.493 21.118-29.24 25.991l-4.873 3.249c-3.249 1.624-6.498 4.873-8.122 8.122-3.249 3.249-4.873 6.498-6.498 9.747s0 6.498 3.249 8.122c3.249 1.624 9.747 3.249 19.493 3.249l12.996-1.624c9.747-1.624 19.493-6.498 34.113-16.245 12.996-9.747 24.367-21.118 32.489-35.738 9.747-17.869 22.742-32.489 37.362-42.236s29.24-14.62 43.86-14.62c14.62 0 27.616 1.624 38.987 3.249s21.118 6.498 30.865 9.747c3.249 30.865 14.62 53.607 32.489 69.851-25.991 3.249-48.734 6.498-69.851 12.996-21.118 4.873-42.236 14.62-63.354 25.991-21.118 12.996-40.611 27.616-55.231 45.485s-25.991 42.236-35.738 71.476c-9.747 29.24-14.62 63.354-14.62 102.34 0 55.231 17.869 102.34 53.607 141.327-16.245 40.611-14.62 87.72 4.873 139.703 12.996 4.873 32.489 1.624 58.48-9.747 25.991-9.747 43.86-19.493 56.856-25.991 11.371-6.498 21.118-12.996 29.24-17.869 42.236 11.371 86.096 17.869 129.956 17.869s87.72-6.498 129.956-17.869l25.991 16.245c17.869 11.371 38.987 21.118 61.729 29.24 24.367 9.747 42.236 11.371 55.231 8.122 19.493-51.982 22.742-97.467 4.873-139.703 35.738-38.987 53.607-86.096 53.607-141.327 0-38.987-4.873-73.1-14.62-102.34s-21.118-53.607-35.738-71.476c-14.62-17.869-32.489-32.489-55.231-45.485-21.118-12.996-43.86-21.118-63.354-25.991-21.118-4.873-43.86-9.747-69.851-12.996 22.742-21.118 35.738-51.982 35.738-97.467v-144.576c0-8.122 3.249-14.62 8.122-21.118 4.873-4.873 14.62-6.498 25.991-4.873 103.965 35.738 190.061 97.467 256.663 190.061 66.603 90.969 99.092 193.31 99.092 308.646 1.624 95.843-21.118 183.563-68.227 263.161z" />
</font>
</defs>
</svg>
